<?xml version="1.0" encoding="UTF-8"?>
<svg id="Layer_2" data-name="Layer 2" xmlns="http://www.w3.org/2000/svg" viewBox="0 0 570.26 85.97">
  <defs>
    <style>
      .cls-1 {
        fill: #fff;
      }
    </style>
  </defs>
  <g id="Layer_1-2" data-name="Layer 1">
    <g>
      <path class="cls-1" d="m36.87,65.2c-.92-9.73-5.91-14.85-14.72-16.56,10.12-1.32,17.88-8.94,17.88-21.16C40.03,11.57,29.51,1.58,8.09,1.58H0v16.04h4.93c10.39,0,15.51,4.07,15.51,11.43,0,8.15-5.12,11.17-15.51,11.17H0v15.38h4.41c8.28,0,12.48,3.03,13.14,12.36.66,8.8,1.71,14.19,3.42,16.43h20.24c-2.76-3.02-3.15-6.97-4.34-19.19Z"/>
      <path class="cls-1" d="m86.17,67.96v-17.48h33.51v-16.17h-33.51v-16.3h43.11V1.58h-62.7v82.81h63.88v-16.43h-44.29Z"/>
      <path class="cls-1" d="m176.86,67.96V1.58h-19.98v82.81h62.04v-16.43h-42.06Z"/>
      <path class="cls-1" d="m264.27,67.96v-17.48h33.52v-16.17h-33.52v-16.3h43.11V1.58h-62.69v82.81h63.87v-16.43h-44.29Z"/>
      <path class="cls-1" d="m384.01,1.58h-22.21l-33.12,82.81h19.97l6.97-17.88h33.39l7.09,17.88h21.3L384.01,1.58Zm-22.61,49.95l10.65-27.21h.53l10.64,27.21h-21.82Z"/>
      <path class="cls-1" d="m481.28,35.1l-15.51-2.76c-6.05-1.18-9.72-2.89-9.72-7.63,0-5.65,4.73-9.06,13.14-9.06,9.59,0,16.3,4.73,16.82,14.45l18.4-.52c-.39-18.4-12.61-29.58-35.09-29.58-20.11,0-32.86,10.13-32.86,26.42,0,14.07,9.33,21.43,22.48,23.93l15.51,2.76c7.23,1.44,12.09,2.76,12.09,8.28s-5.52,8.93-14.33,8.93c-10.25,0-18.79-4.6-19.58-16.03l-18.27.66c0,20.11,15.77,31.02,37.85,31.02,18.93,0,33.78-8.81,33.78-25.9,0-13.54-7.75-21.95-24.71-24.97Z"/>
      <path class="cls-1" d="m570.26,18.01V1.58h-37.71v82.81h37.71v-16.43h-18.13v-17.48h18.13v-16.17h-18.13v-16.3h18.13Z"/>
    </g>
  </g>
</svg>